HIERARCHY
ROOT Hips
{
	OFFSET -0.001795 -0.223333 0.028219
	CHANNELS 6 Xposition Yposition Zposition Zrotation Yrotation Xrotation 
	JOINT LeftUpLeg
	{
		OFFSET 0.069520 -0.091406 -0.006815
		CHANNELS 3 Zrotation Yrotation Xrotation
		JOINT LeftLeg
		{
			OFFSET 0.034277 -0.375199 -0.004496
			CHANNELS 3 Zrotation Yrotation Xrotation
			JOINT LeftFoot
			{
				OFFSET -0.013596 -0.397961 -0.043693
				CHANNELS 3 Zrotation Yrotation Xrotation
				JOINT LeftToe
				{
					OFFSET 0.026358 -0.055791 0.119288
					CHANNELS 3 Zrotation Yrotation Xrotation
					End Site
					{
						OFFSET 0.000000 0.000000 0.000000
					}
				}
			}
		}
	}
	JOINT RightUpLeg
	{
		OFFSET -0.067670 -0.090522 -0.004320
		CHANNELS 3 Zrotation Yrotation Xrotation
		JOINT RightLeg
		{
			OFFSET -0.038290 -0.382569 -0.008850
			CHANNELS 3 Zrotation Yrotation Xrotation
			JOINT RightFoot
			{
				OFFSET 0.015774 -0.398415 -0.042312
				CHANNELS 3 Zrotation Yrotation Xrotation
				JOINT RightToe
				{
					OFFSET -0.025372 -0.048144 0.123348
					CHANNELS 3 Zrotation Yrotation Xrotation
					End Site
					{
						OFFSET 0.000000 0.000000 0.000000
					}
				}
			}
		}
	}
	JOINT Spine
	{
		OFFSET -0.002533 0.108963 -0.026696
		CHANNELS 3 Zrotation Yrotation Xrotation
		JOINT Spine1
		{
			OFFSET 0.005487 0.135180 0.001092
			CHANNELS 3 Zrotation Yrotation Xrotation
			JOINT Spine2
			{
				OFFSET 0.001457 0.052922 0.025425
				CHANNELS 3 Zrotation Yrotation Xrotation
				JOINT Neck
				{
					OFFSET -0.002778 0.213870 -0.042857
					CHANNELS 3 Zrotation Yrotation Xrotation
					JOINT Head
					{
						OFFSET 0.005152 0.064970 0.051349
						CHANNELS 3 Zrotation Yrotation Xrotation
						End Site
						{
							OFFSET 0.000000 0.000000 0.000000
						}
					}
				}
				JOINT LeftShoulder
				{
					OFFSET 0.078845 0.121749 -0.034090
					CHANNELS 3 Zrotation Yrotation Xrotation
					JOINT LeftArm
					{
						OFFSET 0.090977 0.030469 -0.008868
						CHANNELS 3 Zrotation Yrotation Xrotation
						JOINT LeftForeArm
						{
							OFFSET 0.259612 -0.012772 -0.027456
							CHANNELS 3 Zrotation Yrotation Xrotation
							JOINT LeftHand
							{
								OFFSET 0.249234 0.008986 -0.001171
								CHANNELS 3 Zrotation Yrotation Xrotation
								End Site
								{
									OFFSET 0.000000 0.000000 0.000000
								}
							}
						}
					}
				}
				JOINT RightShoulder
				{
					OFFSET -0.081759 0.118833 -0.038615
					CHANNELS 3 Zrotation Yrotation Xrotation
					JOINT RightArm
					{
						OFFSET -0.096012 0.032551 -0.009143
						CHANNELS 3 Zrotation Yrotation Xrotation
						JOINT RightForeArm
						{
							OFFSET -0.253742 -0.013329 -0.021401
							CHANNELS 3 Zrotation Yrotation Xrotation
							JOINT RightHand
							{
								OFFSET -0.255298 0.007772 -0.005559
								CHANNELS 3 Zrotation Yrotation Xrotation
								End Site
								{
									OFFSET 0.000000 0.000000 0.000000
								}
							}
						}
					}
				}
			}
		}
	}
}
MOTION
Frames: 8
Frame Time: 0.05000000
0.000000 0.852449 0.000000 1.932895 4.879747 18.996360 2.327218 -1.417957 -17.396371 -8.385195 0.465305 -0.535890 8.504479 14.097333 -26.398398 0.000000 0.000000 0.000000 -6.893056 1.781105 -18.772965 9.258533 -0.928757 3.170594 -5.343110 -10.854280 -29.762031 0.000000 0.000000 0.000000 -4.127886 0.687050 -25.856460 1.690788 0.147278 -20.927925 -3.088287 -6.562179 38.700039 2.875674 0.646027 -38.466560 0.000000 0.000000 0.000000 20.152944 10.030182 -1.691448 -91.633191 -4.521566 -3.839266 -23.562973 -26.114933 7.231582 0.000000 0.000000 0.000000 -25.128511 -4.912650 0.923443 95.430648 8.802697 -2.818381 19.724483 25.401558 5.562058 0.000000 0.000000 0.000000 
0.003006 0.852065 -0.204342 1.810480 5.199954 19.499520 2.378051 -1.436265 -17.703624 -8.131953 0.417008 -0.967127 8.525886 14.061934 -26.242174 0.000000 0.000000 0.000000 -7.686751 1.798507 -19.378641 10.325798 -1.070982 3.238230 -5.032016 -9.261370 -29.357112 0.000000 0.000000 0.000000 -4.273368 0.680705 -26.631527 1.847118 0.113578 -21.092587 -3.226696 -7.098258 39.172377 2.831975 0.609044 -38.420574 0.000000 0.000000 0.000000 20.203394 10.449737 -1.836228 -91.971674 -3.829823 -4.143767 -24.198621 -26.246406 7.448625 0.000000 0.000000 0.000000 -25.523639 -4.776234 1.039602 95.054544 9.010103 -2.879209 20.641307 25.396302 5.783500 0.000000 0.000000 0.000000 
0.005672 0.851849 -0.407543 1.800499 5.736761 19.737651 2.692165 -1.488421 -18.573258 -8.384065 0.460060 0.078492 8.388232 13.407083 -26.100801 0.000000 0.000000 0.000000 -7.741746 1.817617 -20.081596 10.278771 -1.110531 3.863964 -5.014392 -10.013741 -28.870157 0.000000 0.000000 0.000000 -4.075222 0.693859 -27.031825 1.821373 0.117118 -20.907706 -3.323019 -6.802817 39.238373 2.896045 0.642664 -38.407322 0.000000 0.000000 0.000000 20.280544 9.735185 -1.605559 -91.949298 -4.700348 -3.746219 -23.238682 -26.539503 7.285092 0.000000 0.000000 0.000000 -25.448688 -5.008009 0.886805 94.890418 8.456546 -2.935578 21.077048 26.289975 6.123294 0.000000 0.000000 0.000000 
0.012082 0.852774 -0.614233 1.925305 6.699657 19.630079 2.247649 -1.471840 -18.418939 -7.614644 0.398157 0.176936 8.333211 12.326465 -26.235083 0.000000 0.000000 0.000000 -8.161637 1.779512 -19.480103 10.343972 -1.113667 3.167956 -4.743012 -8.902474 -28.587759 0.000000 0.000000 0.000000 -4.415602 0.647575 -26.975415 1.894639 0.109655 -21.100754 -3.511341 -7.529209 39.565958 2.552536 0.764675 -38.619871 0.000000 0.000000 0.000000 20.220491 9.979577 -1.706455 -92.134227 -4.562611 -3.688525 -23.021504 -26.155441 7.106855 0.000000 0.000000 0.000000 -25.743764 -4.661247 0.991517 95.007925 9.108420 -2.487917 20.737282 26.218697 6.026359 0.000000 0.000000 0.000000 
0.026025 0.853013 -0.820179 2.023955 6.643673 19.449365 2.122315 -1.467472 -18.321185 -7.458122 0.407586 0.587393 8.054590 11.108060 -26.181291 0.000000 0.000000 0.000000 -8.469313 1.755140 -19.410773 10.315100 -1.123865 3.356060 -4.716434 -8.696256 -28.437630 0.000000 0.000000 0.000000 -4.357030 0.649891 -26.669392 1.851120 0.116374 -20.942294 -3.511181 -7.225031 39.443322 2.410793 0.849918 -38.524998 0.000000 0.000000 0.000000 20.337944 9.662654 -1.587392 -92.236884 -4.663462 -3.792836 -22.614888 -25.916795 6.921374 0.000000 0.000000 0.000000 -25.844591 -4.911083 0.920660 95.246809 8.668264 -2.689043 20.539050 27.126996 6.214856 0.000000 0.000000 0.000000 
0.045169 0.853292 -1.024805 2.056646 7.362546 19.006209 2.264980 -1.426356 -17.771668 -8.187111 0.465667 1.152458 8.246959 11.515341 -26.404579 0.000000 0.000000 0.000000 -8.515571 1.706961 -18.456137 10.353112 -1.125438 2.765813 -4.588221 -8.168221 -28.283045 0.000000 0.000000 0.000000 -4.414121 0.630258 -25.998453 1.792766 0.136406 -20.956816 -3.639621 -7.506427 39.533730 2.521730 0.759009 -38.075734 0.000000 0.000000 0.000000 20.406358 9.607568 -1.576746 -92.258403 -4.816271 -3.710318 -22.242325 -25.245580 6.626221 0.000000 0.000000 0.000000 -25.830705 -4.968829 0.902512 95.357772 9.368031 -2.017746 20.231348 26.994922 6.097695 0.000000 0.000000 0.000000 
0.069076 0.853434 -1.228497 2.071916 7.655191 18.785988 2.224602 -1.439532 -18.011237 -8.443054 0.510637 1.899840 8.380829 11.885640 -26.599386 0.000000 0.000000 0.000000 -8.551521 1.684739 -18.056384 10.099506 -1.078012 2.277657 -4.513159 -7.794226 -28.142350 0.000000 0.000000 0.000000 -4.503192 0.617236 -25.631377 1.781903 0.141742 -20.970972 -3.647546 -7.454041 39.474528 2.373955 0.833963 -37.957716 0.000000 0.000000 0.000000 20.167044 9.485636 -1.536703 -92.078573 -4.944340 -3.807103 -22.194409 -25.063389 6.566025 0.000000 0.000000 0.000000 -25.925956 -4.775680 0.885559 95.546844 9.612113 -1.596409 19.775872 27.055969 5.992771 0.000000 0.000000 0.000000 
0.101270 0.853478 -1.430658 2.136530 7.619533 18.462090 2.131289 -1.456756 -18.263129 -8.313848 0.558038 3.118608 8.363995 11.558609 -27.175953 0.000000 0.000000 0.000000 -8.709694 1.657005 -17.829567 10.180183 -1.110625 2.623397 -4.506260 -7.414636 -28.498748 0.000000 0.000000 0.000000 -4.541242 0.607603 -25.246261 1.756908 0.146809 -20.914754 -3.552461 -7.207251 39.453730 2.113863 0.954310 -37.745959 0.000000 0.000000 0.000000 20.117001 9.404896 -1.480443 -92.127726 -5.138397 -3.840850 -22.104877 -24.764920 6.454555 0.000000 0.000000 0.000000 -26.069705 -4.601701 0.863354 95.649948 9.943052 -1.079004 19.671631 27.000750 5.939961 0.000000 0.000000 0.000000 
